HIERARCHY
ROOT Hips
{
    OFFSET   0.000000   0.000000   0.000000
    CHANNELS 6 Xposition Yposition Zposition Zrotation Xrotation Yrotation
    JOINT Chest
    {
        OFFSET   0.000000   8.007230   0.000000
        CHANNELS 3 Zrotation Xrotation Yrotation
        JOINT Chest2
        {
            OFFSET   0.000000  22.077100   0.000000
            CHANNELS 3 Zrotation Xrotation Yrotation
            JOINT Neck
            {
                OFFSET   0.000000  23.254800   0.000000
                CHANNELS 3 Zrotation Xrotation Yrotation
                JOINT Head
                {
                    OFFSET   0.000010  14.370000   1.956600
                    CHANNELS 3 Zrotation Xrotation Yrotation
                    End Site
                    {
                        OFFSET   0.000000  19.566000   0.000000
                    }
                }
            }
            JOINT LeftCollar
            {
                OFFSET   3.911900  19.017000  -0.467062
                CHANNELS 3 Zrotation Xrotation Yrotation
                JOINT LeftShoulder
                {
                    OFFSET  10.383700   0.000000   0.000000
                    CHANNELS 3 Zrotation Xrotation Yrotation
                    JOINT LeftElbow
                    {
                        OFFSET  26.662100   0.001193   0.000835
                        CHANNELS 3 Zrotation Xrotation Yrotation
                        JOINT LeftWrist
                        {
                            OFFSET  28.869000  -0.000058  -0.000075
                            CHANNELS 3 Zrotation Xrotation Yrotation
                            JOINT LeftFinger0
                            {
                                OFFSET   2.044660  -2.323460   3.252850
                                CHANNELS 3 Zrotation Xrotation Yrotation
                                JOINT LeftFinger01
                                {
                                    OFFSET   3.088130   0.000000   0.000000
                                    CHANNELS 3 Zrotation Xrotation Yrotation
                                    JOINT LeftFinger02
                                    {
                                        OFFSET   2.639450   0.000000   0.000000
                                        CHANNELS 3 Zrotation Xrotation Yrotation
                                        End Site
                                        {
                                            OFFSET   2.582190   0.000000   0.000000
                                        }
                                    }
                                }
                            }
                            JOINT LeftFinger1
                            {
                                OFFSET   8.364480   0.000000   3.252850
                                CHANNELS 3 Zrotation Xrotation Yrotation
                                JOINT LeftFinger11
                                {
                                    OFFSET   4.646920   0.000000   0.000000
                                    CHANNELS 3 Zrotation Xrotation Yrotation
                                    JOINT LeftFinger12
                                    {
                                        OFFSET   2.323460   0.000000   0.000000
                                        CHANNELS 3 Zrotation Xrotation Yrotation
                                        End Site
                                        {
                                            OFFSET   2.273050   0.000000   0.000000
                                        }
                                    }
                                }
                            }
                            JOINT LeftFinger2
                            {
                                OFFSET   8.364490   0.000016   1.078090
                                CHANNELS 3 Zrotation Xrotation Yrotation
                                JOINT LeftFinger21
                                {
                                    OFFSET   5.111620   0.000000   0.000000
                                    CHANNELS 3 Zrotation Xrotation Yrotation
                                    JOINT LeftFinger22
                                    {
                                        OFFSET   2.788150   0.000012   0.000000
                                        CHANNELS 3 Zrotation Xrotation Yrotation
                                        End Site
                                        {
                                            OFFSET   2.727660   0.000000   0.000000
                                        }
                                    }
                                }
                            }
                            JOINT LeftFinger3
                            {
                                OFFSET   7.899780   0.000014  -1.078090
                                CHANNELS 3 Zrotation Xrotation Yrotation
                                JOINT LeftFinger31
                                {
                                    OFFSET   4.646930   0.000000   0.000000
                                    CHANNELS 3 Zrotation Xrotation Yrotation
                                    JOINT LeftFinger32
                                    {
                                        OFFSET   2.323470   0.000000   0.000000
                                        CHANNELS 3 Zrotation Xrotation Yrotation
                                        End Site
                                        {
                                            OFFSET   2.273050   0.000000   0.000000
                                        }
                                    }
                                }
                            }
                            JOINT LeftFinger4
                            {
                                OFFSET   7.435090   0.000000  -3.252850
                                CHANNELS 3 Zrotation Xrotation Yrotation
                                JOINT LeftFinger41
                                {
                                    OFFSET   3.717550   0.000000   0.000000
                                    CHANNELS 3 Zrotation Xrotation Yrotation
                                    JOINT LeftFinger42
                                    {
                                        OFFSET   1.858770   0.000000   0.000000
                                        CHANNELS 3 Zrotation Xrotation Yrotation
                                        End Site
                                        {
                                            OFFSET   1.818440   0.000000   0.000000
                                        }
                                    }
                                }
                            }
                        }
                    }
                }
            }
            JOINT RightCollar
            {
                OFFSET  -3.911900  19.017000  -0.467063
                CHANNELS 3 Zrotation Xrotation Yrotation
                JOINT RightShoulder
                {
                    OFFSET -10.383700   0.000023   0.000000
                    CHANNELS 3 Zrotation Xrotation Yrotation
                    JOINT RightElbow
                    {
                        OFFSET -26.662100   0.001246   0.001011
                        CHANNELS 3 Zrotation Xrotation Yrotation
                        JOINT RightWrist
                        {
                            OFFSET -28.869000  -0.000026  -0.000078
                            CHANNELS 3 Zrotation Xrotation Yrotation
                            JOINT RightFinger0
                            {
                                OFFSET  -2.044660  -2.323490   3.252850
                                CHANNELS 3 Zrotation Xrotation Yrotation
                                JOINT RightFinger01
                                {
                                    OFFSET  -3.088130   0.000000   0.000000
                                    CHANNELS 3 Zrotation Xrotation Yrotation
                                    JOINT RightFinger02
                                    {
                                        OFFSET  -2.639460   0.000000   0.000000
                                        CHANNELS 3 Zrotation Xrotation Yrotation
                                        End Site
                                        {
                                            OFFSET  -2.582190   0.000000   0.000000
                                        }
                                    }
                                }
                            }
                            JOINT RightFinger1
                            {
                                OFFSET  -8.364480   0.000000   3.252850
                                CHANNELS 3 Zrotation Xrotation Yrotation
                                JOINT RightFinger11
                                {
                                    OFFSET  -4.646920   0.000000   0.000000
                                    CHANNELS 3 Zrotation Xrotation Yrotation
                                    JOINT RightFinger12
                                    {
                                        OFFSET  -2.323470   0.000000   0.000000
                                        CHANNELS 3 Zrotation Xrotation Yrotation
                                        End Site
                                        {
                                            OFFSET  -2.273050   0.000000   0.000000
                                        }
                                    }
                                }
                            }
                            JOINT RightFinger2
                            {
                                OFFSET  -8.364480   0.000000   1.078090
                                CHANNELS 3 Zrotation Xrotation Yrotation
                                JOINT RightFinger21
                                {
                                    OFFSET  -5.111620   0.000000   0.000000
                                    CHANNELS 3 Zrotation Xrotation Yrotation
                                    JOINT RightFinger22
                                    {
                                        OFFSET  -2.788160   0.000000   0.000000
                                        CHANNELS 3 Zrotation Xrotation Yrotation
                                        End Site
                                        {
                                            OFFSET  -2.727660   0.000000   0.000000
                                        }
                                    }
                                }
                            }
                            JOINT RightFinger3
                            {
                                OFFSET  -7.899780   0.000000  -1.078090
                                CHANNELS 3 Zrotation Xrotation Yrotation
                                JOINT RightFinger31
                                {
                                    OFFSET  -4.646930   0.000000   0.000000
                                    CHANNELS 3 Zrotation Xrotation Yrotation
                                    JOINT RightFinger32
                                    {
                                        OFFSET  -2.323470   0.000000   0.000000
                                        CHANNELS 3 Zrotation Xrotation Yrotation
                                        End Site
                                        {
                                            OFFSET  -2.273050   0.000000   0.000000
                                        }
                                    }
                                }
                            }
                            JOINT RightFinger4
                            {
                                OFFSET  -7.435090   0.000000  -3.252850
                                CHANNELS 3 Zrotation Xrotation Yrotation
                                JOINT RightFinger41
                                {
                                    OFFSET  -3.717550   0.000000   0.000000
                                    CHANNELS 3 Zrotation Xrotation Yrotation
                                    JOINT RightFinger42
                                    {
                                        OFFSET  -1.858760   0.000000   0.000000
                                        CHANNELS 3 Zrotation Xrotation Yrotation
                                        End Site
                                        {
                                            OFFSET  -1.818440   0.000000   0.000000
                                        }
                                    }
                                }
                            }
                        }
                    }
                }
            }
        }
    }
    JOINT LeftHip
    {
        OFFSET   9.783010   0.000000   0.000000
        CHANNELS 3 Zrotation Xrotation Yrotation
        JOINT LeftKnee
        {
            OFFSET   0.000073 -41.789100   0.001749
            CHANNELS 3 Zrotation Xrotation Yrotation
            JOINT LeftAnkle
            {
                OFFSET   0.000111 -41.133200  -0.000179
                CHANNELS 3 Zrotation Xrotation Yrotation
                JOINT LeftToe
                {
                    OFFSET   0.000000  -6.358960  14.674500
                    CHANNELS 3 Zrotation Xrotation Yrotation
                    End Site
                    {
                        OFFSET   0.000000   0.000000   3.913200
                    }
                }
            }
        }
    }
    JOINT RightHip
    {
        OFFSET  -9.783010   0.000000   0.000000
        CHANNELS 3 Zrotation Xrotation Yrotation
        JOINT RightKnee
        {
            OFFSET   0.000424 -41.789200   0.005205
            CHANNELS 3 Zrotation Xrotation Yrotation
            JOINT RightAnkle
            {
                OFFSET   0.000000 -41.133200  -0.000155
                CHANNELS 3 Zrotation Xrotation Yrotation
                JOINT RightToe
                {
                    OFFSET   0.000000  -6.358960  14.674500
                    CHANNELS 3 Zrotation Xrotation Yrotation
                    End Site
                    {
                        OFFSET   0.000000   0.000000   3.913200
                    }
                }
            }
        }
    }
}
MOTION
Frames: 4
Frame Time:   0.016667
 -6.862180  88.373600  -6.859410  -3.924180 -31.335500  -3.298700   2.493800  15.982600  -4.516260   6.765070  31.679500 -10.425200   0.337967  -0.592718   0.001009   0.551267  -1.201250  14.515400  -3.820070  -7.607950   0.864518 -46.638500   2.981390 -60.971800  23.912800  -7.457960 -56.313400  24.092700 -11.579400 -14.374100  44.978900  47.629700 -74.564100 -40.652700  -0.000759  -0.000645 -17.054700  -0.000330  -0.003146 -88.991000   5.000720  -0.083853 -75.833400   0.000104  -0.006895 -56.875100   0.000329  -0.000347 -88.997600   0.000086  -0.008374 -92.906200   0.001597   0.003432 -69.679600   0.002062   0.000207 -88.995900  -5.000610   0.090435 -92.028100   0.001428   0.002876 -69.021100   0.001112   0.000050 -88.984600 -10.002100   0.176318 -110.000000  -0.005014   0.001947 -80.000000  -0.006627  -0.001596  10.617300  -7.062920   9.562970  39.028800  16.230700  43.999300 -25.709400 -26.451700  89.889600   2.133990 -20.427800   8.007750 -54.112200  49.682100  76.356000  34.318500   0.009430  -0.006271  12.159200   0.007864  -0.003803  88.996800   5.001480   0.081172  78.784300   0.001479   0.005774  59.088200   0.004751  -0.001144  89.000300  -0.000400   0.000727 102.745000   0.001177   0.001830  77.059200   0.004359  -0.004606  88.996600  -4.995250  -0.083362 105.280000   0.002841   0.000917  78.960400   0.001120  -0.003917  88.984000  -9.998710  -0.180169 110.000000  -0.006930  -0.002859  80.000300  -0.001940   0.005115   6.493460  22.856500   0.596846   2.290320  17.943600  11.781500  -7.592040  -7.584020  -1.942750  -0.000000   0.000000   0.000000  10.928400  22.766100  -6.882720  -2.671860  15.955400 -17.797700   0.931673 -11.361600   5.650490   0.000000   0.000000   0.000000
 -6.877270  88.386800  -6.869120  -3.922100 -31.311100  -3.297900   2.470650  15.962500  -4.503740   6.708600  31.642600 -10.388200   0.342613  -0.616279   0.000939   0.563135  -1.249160  14.465100  -3.847600  -7.627510   0.866735 -46.623600   2.996870 -60.941600  23.975800  -7.425050 -56.301900  24.026700 -11.562700 -14.361700  44.781200  47.472900 -74.347200 -40.647300  -0.000762  -0.000735 -17.045800  -0.000293  -0.003215 -88.990700   5.000770  -0.084048 -75.857300   0.000000  -0.007053 -56.893100   0.000250  -0.000386 -88.997500   0.000000  -0.008545 -92.886800   0.001510   0.003596 -69.664900   0.002083   0.000163 -88.995900  -5.000610   0.090549 -92.178200   0.001333   0.003012 -69.133700   0.001091   0.000000 -88.984600 -10.002000   0.176318 -110.000000  -0.005051   0.001998 -80.000000  -0.006631  -0.001598  10.604300  -7.040690   9.576000  39.021400  16.237100  43.999400 -25.811800 -26.485400  89.696600   2.027940 -20.545800   7.954560 -53.843400  49.526500  76.132300  34.329600   0.009569  -0.006344  12.164800   0.007827  -0.003770  88.996700   5.001490   0.081312  78.849500   0.001468   0.005790  59.137100   0.004771  -0.001124  89.000300  -0.000340   0.000646 102.843000   0.001305   0.001943  77.132600   0.004384  -0.004746  88.996500  -4.995240  -0.083478 105.250000   0.002904   0.001009  78.937600   0.001203  -0.004023  88.983900  -9.998680  -0.180241 110.000000  -0.006928  -0.002880  80.000300  -0.001998   0.005148   6.492910  22.851900   0.563594   2.294300  17.912100  11.809500  -7.609070  -7.556810  -1.931550   0.000000   0.000000  -0.000000  10.926400  22.778300  -6.888310  -2.655200  15.880400 -17.816100   1.009570 -11.463600   5.717900  -0.000000   0.000000   0.000000
 -6.892500  88.400000  -6.884010  -3.929950 -31.273500  -3.304990   2.448390  15.940600  -4.490060   6.653380  31.602100 -10.348900   0.341677  -0.648486   0.000858   0.564809  -1.314550  14.436000  -3.874580  -7.654340   0.873885 -46.644400   3.000880 -60.906800  24.039300  -7.363950 -56.345400  23.963900 -11.563000 -14.350100  44.874200  47.516600 -74.406100 -40.580200  -0.000767  -0.000563 -16.981900  -0.000248  -0.003279 -88.990500   5.000820  -0.084236 -75.833800  -0.000112  -0.007210 -56.875500   0.000179  -0.000410 -88.997400  -0.000066  -0.008709 -92.846300   0.001419   0.003738 -69.634600   0.002100   0.000134 -88.995900  -5.000600   0.090675 -92.391100   0.001241   0.003139 -69.293400   0.001067  -0.000000 -88.984600 -10.001900   0.176319 -110.000000  -0.005080   0.002052 -80.000000  -0.006616  -0.001602  10.583900  -7.009230   9.593130  39.094400  16.222100  43.959500 -25.867300 -26.568600  89.654400   2.074280 -20.754800   7.921740 -53.974700  49.589000  76.254400  34.300600   0.009697  -0.006484  12.150300   0.007790  -0.003751  88.996700   5.001510   0.081457  78.884600   0.001465   0.005814  59.163500   0.004778  -0.001098  89.000300  -0.000278   0.000568 102.883000   0.001439   0.002059  77.162800   0.004415  -0.004887  88.996500  -4.995220  -0.083588 105.259000   0.002978   0.001105  78.944300   0.001290  -0.004134  88.984000  -9.998650  -0.180312 110.000000  -0.006929  -0.002897  80.000400  -0.002049   0.005185   6.498810  22.829700   0.563687   2.309410  17.877700  11.814800  -7.617720  -7.523970  -1.923920  -0.000000   0.000000   0.000000  10.932500  22.772300  -6.886590  -2.641670  15.811400 -17.819800   1.079670 -11.561700   5.768550  -0.000000   0.000000   0.000000
 -6.907580  88.413500  -6.895410  -3.946510 -31.233100  -3.323830   2.424790  15.919800  -4.475430   6.595260  31.564200 -10.307300   0.338818  -0.686208   0.000779   0.556979  -1.391050  14.426100  -3.892880  -7.681770   0.888591 -46.665300   3.004640 -60.874600  24.073700  -7.314680 -56.419700  23.930600 -11.563000 -14.343100  44.996100  47.566400 -74.489200 -40.521200  -0.000773  -0.000391 -16.931400  -0.000202  -0.003343 -88.990300   5.000860  -0.084423 -75.797100  -0.000224  -0.007365 -56.847900   0.000114  -0.000432 -88.997300  -0.000125  -0.008872 -92.818300   0.001329   0.003873 -69.613600   0.002116   0.000104 -88.995900  -5.000590   0.090800 -92.550800   0.001151   0.003267 -69.413100   0.001042   0.000000 -88.984600 -10.001900   0.176323 -110.000000  -0.005105   0.002105 -80.000000  -0.006593  -0.001605  10.561200  -6.973290   9.614900  39.230100  16.195800  43.888900 -25.875800 -26.661100  89.647100   2.119850 -20.963500   7.887610 -54.202000  49.700800  76.472500  34.257800   0.009815  -0.006617  12.128900   0.007751  -0.003732  88.996700   5.001530   0.081608  78.899700   0.001462   0.005842  59.174800   0.004786  -0.001069  89.000300  -0.000216   0.000494 102.896000   0.001576   0.002175  77.172300   0.004450  -0.005026  88.996500  -4.995210  -0.083697 105.268000   0.003057   0.001205  78.951000   0.001380  -0.004245  88.983900  -9.998620  -0.180379 110.000000  -0.006930  -0.002912  80.000400  -0.002100   0.005221   6.510710  22.811500   0.564909   2.326190  17.832700  11.815600  -7.624870  -7.487750  -1.917740  -0.000000   0.000000  -0.000000  10.945400  22.766700  -6.876370  -2.628640  15.739900 -17.824100   1.136700 -11.632500   5.806900  -0.000000   0.000000   0.000000
